<?xml version="1.0" standalone="no"?><!DOCTYPE svg PUBLIC "-//W3C//DTD SVG 1.1//EN" "http://www.w3.org/Graphics/SVG/1.1/DTD/svg11.dtd"><svg t="1719387892706" class="icon" viewBox="0 0 1024 1024" version="1.1" xmlns="http://www.w3.org/2000/svg" p-id="1899" xmlns:xlink="http://www.w3.org/1999/xlink" width="200" height="200"><path d="M403.2 972.8C272 972.8 96 948.8 41.6 824-44.8 622.4 112 500.8 113.6 499.2l3.2-1.6c57.6-22.4 112 9.6 171.2 43.2 59.2 33.6 126.4 73.6 211.2 68.8 102.4-6.4 123.2-89.6 142.4-161.6 11.2-43.2 20.8-81.6 48-94.4 64-30.4 201.6 27.2 217.6 33.6l11.2 4.8-19.2 113.6c-52.8 355.2-340.8 456-344 457.6h-3.2c-4.8 0-68.8 9.6-148.8 9.6z m-272-446.4c-16 12.8-132.8 115.2-59.2 284.8 75.2 172.8 448 124.8 475.2 120 20.8-8 272-108.8 321.6-432l14.4-89.6c-44.8-17.6-139.2-48-179.2-30.4-14.4 6.4-22.4 40-32 73.6-19.2 75.2-46.4 179.2-171.2 185.6-94.4 8-164.8-33.6-228.8-70.4-54.4-32-97.6-57.6-140.8-41.6z" p-id="1900"></path><path d="M899.2 432l-12.8-11.2s-76.8-59.2-179.2-44.8l-11.2 1.6-4.8-9.6c-25.6-51.2-81.6-174.4-44.8-211.2 6.4-6.4 20.8-14.4 44.8-11.2 43.2 6.4 104 49.6 129.6 80 30.4-22.4 104-70.4 160-56 12.8 3.2 20.8 11.2 25.6 22.4 20.8 54.4-76.8 198.4-96 225.6l-11.2 14.4z m-158.4-91.2c72 0 126.4 28.8 152 44.8 48-72 92.8-160 83.2-184 0-1.6-1.6-1.6-3.2-3.2-46.4-11.2-121.6 40-145.6 60.8l-16 12.8-9.6-17.6c-9.6-19.2-75.2-70.4-116.8-78.4-4.8 0-12.8-1.6-17.6 1.6-11.2 11.2 9.6 88 46.4 163.2 9.6 1.6 17.6 0 27.2 0zM160 872c-4.8 0-11.2-3.2-14.4-8-67.2-118.4-3.2-264 0-270.4 3.2-8 12.8-11.2 20.8-8 8 3.2 11.2 12.8 8 20.8 0 1.6-59.2 137.6 0 241.6 4.8 8 1.6 17.6-6.4 22.4-3.2 1.6-4.8 1.6-8 1.6zM288 888c-4.8 0-11.2-3.2-14.4-8-49.6-84.8-19.2-214.4-17.6-219.2 1.6-8 11.2-14.4 19.2-11.2 8 1.6 14.4 11.2 11.2 19.2 0 1.6-30.4 123.2 14.4 195.2 4.8 8 1.6 17.6-4.8 22.4-1.6 1.6-4.8 1.6-8 1.6zM464 920c-1.6 0-4.8 0-6.4-1.6-99.2-43.2-91.2-156.8-73.6-211.2 3.2-8 11.2-12.8 20.8-9.6 8 3.2 12.8 11.2 9.6 20.8-1.6 4.8-41.6 131.2 54.4 172.8 8 3.2 11.2 12.8 8 20.8 0 4.8-6.4 8-12.8 8zM608 856h-1.6c-30.4-4.8-54.4-19.2-68.8-41.6-36.8-57.6-9.6-150.4-8-153.6 3.2-8 11.2-12.8 19.2-11.2 8 3.2 12.8 11.2 11.2 19.2 0 1.6-24 83.2 4.8 128 9.6 16 25.6 24 46.4 27.2 8 1.6 14.4 9.6 12.8 17.6-1.6 8-8 14.4-16 14.4zM752 697.6c-16 0-32-4.8-44.8-14.4-41.6-28.8-51.2-94.4-51.2-97.6-1.6-8 4.8-17.6 12.8-17.6 8-1.6 17.6 4.8 17.6 12.8 0 0 8 54.4 38.4 75.2 11.2 8 24 9.6 38.4 6.4 8-1.6 17.6 3.2 19.2 12.8 1.6 8-3.2 17.6-12.8 19.2-4.8 3.2-11.2 3.2-17.6 3.2z" p-id="1901"></path></svg>